<svg width="205" height="80" viewBox="0 0 205 80" fill="none" xmlns="http://www.w3.org/2000/svg">
<path d="M6.79545 25H0.75L8.60227 1.72727H16.0909L23.9432 25H17.8977L12.4318 7.59091H12.25L6.79545 25ZM5.98864 15.8409H18.625V20.1136H5.98864V15.8409ZM53.1307 1.72727V25H48.358L39.0966 11.5682H38.9489V25H33.3239V1.72727H38.1648L47.3239 15.1364H47.517V1.72727H53.1307ZM64.8153 25.3295C62.982 25.3295 61.4063 24.9545 60.0881 24.2045C58.7775 23.447 57.7661 22.3939 57.054 21.0455C56.3494 19.6894 55.9972 18.1174 55.9972 16.3295C55.9972 14.5341 56.3494 12.9621 57.054 11.6136C57.7661 10.2576 58.7775 9.20454 60.0881 8.45454C61.4063 7.69697 62.982 7.31818 64.8153 7.31818C66.6487 7.31818 68.2206 7.69697 69.5312 8.45454C70.8494 9.20454 71.8608 10.2576 72.5653 11.6136C73.2775 12.9621 73.6335 14.5341 73.6335 16.3295C73.6335 18.1174 73.2775 19.6894 72.5653 21.0455C71.8608 22.3939 70.8494 23.447 69.5312 24.2045C68.2206 24.9545 66.6487 25.3295 64.8153 25.3295ZM64.8494 21.1364C65.5161 21.1364 66.0805 20.9318 66.5426 20.5227C67.0047 20.1136 67.357 19.5455 67.5994 18.8182C67.8494 18.0909 67.9744 17.25 67.9744 16.2955C67.9744 15.3258 67.8494 14.4773 67.5994 13.75C67.357 13.0227 67.0047 12.4545 66.5426 12.0455C66.0805 11.6364 65.5161 11.4318 64.8494 11.4318C64.16 11.4318 63.5767 11.6364 63.0994 12.0455C62.6297 12.4545 62.2699 13.0227 62.0199 13.75C61.7775 14.4773 61.6562 15.3258 61.6562 16.2955C61.6562 17.25 61.7775 18.0909 62.0199 18.8182C62.2699 19.5455 62.6297 20.1136 63.0994 20.5227C63.5767 20.9318 64.16 21.1364 64.8494 21.1364ZM82.0369 15.0455V25H76.4801V7.54545H81.7642V10.75H81.9574C82.3438 9.68182 83.0028 8.8447 83.9347 8.23864C84.8665 7.625 85.9763 7.31818 87.2642 7.31818C88.4915 7.31818 89.5559 7.5947 90.4574 8.14773C91.3665 8.69318 92.071 9.45833 92.571 10.4432C93.0786 11.4205 93.3286 12.5644 93.321 13.875V25H87.7642V14.9659C87.7718 13.9962 87.5256 13.2386 87.0256 12.6932C86.5331 12.1477 85.8475 11.875 84.9688 11.875C84.3854 11.875 83.8703 12.0038 83.4233 12.2614C82.9839 12.5114 82.643 12.8712 82.4006 13.3409C82.1657 13.8106 82.0445 14.3788 82.0369 15.0455ZM107.932 13.4432V17.7273H97.1591V13.4432H107.932ZM111.855 25V1.72727H121.469C123.211 1.72727 124.715 2.06818 125.98 2.75C127.253 3.42424 128.234 4.36742 128.923 5.57954C129.613 6.78409 129.957 8.18561 129.957 9.78409C129.957 11.3902 129.605 12.7955 128.901 14C128.204 15.197 127.207 16.125 125.912 16.7841C124.616 17.4432 123.079 17.7727 121.298 17.7727H115.366V13.3409H120.253C121.101 13.3409 121.81 13.1932 122.378 12.8977C122.954 12.6023 123.389 12.1894 123.685 11.6591C123.98 11.1212 124.128 10.4962 124.128 9.78409C124.128 9.06439 123.98 8.44318 123.685 7.92045C123.389 7.39015 122.954 6.98106 122.378 6.69318C121.802 6.4053 121.094 6.26136 120.253 6.26136H117.48V25H111.855ZM132.73 25V7.54545H138.128V10.7273H138.31C138.628 9.57576 139.147 8.7197 139.866 8.15909C140.586 7.59091 141.423 7.30682 142.378 7.30682C142.635 7.30682 142.901 7.32576 143.173 7.36364C143.446 7.39394 143.7 7.44318 143.935 7.51136V12.3409C143.67 12.25 143.321 12.178 142.889 12.125C142.465 12.072 142.086 12.0455 141.753 12.0455C141.094 12.0455 140.499 12.1932 139.969 12.4886C139.446 12.7765 139.033 13.1818 138.73 13.7045C138.435 14.2197 138.287 14.8258 138.287 15.5227V25H132.73ZM153.44 25.3295C151.607 25.3295 150.031 24.9545 148.713 24.2045C147.402 23.447 146.391 22.3939 145.679 21.0455C144.974 19.6894 144.622 18.1174 144.622 16.3295C144.622 14.5341 144.974 12.9621 145.679 11.6136C146.391 10.2576 147.402 9.20454 148.713 8.45454C150.031 7.69697 151.607 7.31818 153.44 7.31818C155.274 7.31818 156.846 7.69697 158.156 8.45454C159.474 9.20454 160.486 10.2576 161.19 11.6136C161.902 12.9621 162.259 14.5341 162.259 16.3295C162.259 18.1174 161.902 19.6894 161.19 21.0455C160.486 22.3939 159.474 23.447 158.156 24.2045C156.846 24.9545 155.274 25.3295 153.44 25.3295ZM153.474 21.1364C154.141 21.1364 154.705 20.9318 155.168 20.5227C155.63 20.1136 155.982 19.5455 156.224 18.8182C156.474 18.0909 156.599 17.25 156.599 16.2955C156.599 15.3258 156.474 14.4773 156.224 13.75C155.982 13.0227 155.63 12.4545 155.168 12.0455C154.705 11.6364 154.141 11.4318 153.474 11.4318C152.785 11.4318 152.202 11.6364 151.724 12.0455C151.255 12.4545 150.895 13.0227 150.645 13.75C150.402 14.4773 150.281 15.3258 150.281 16.2955C150.281 17.25 150.402 18.0909 150.645 18.8182C150.895 19.5455 151.255 20.1136 151.724 20.5227C152.202 20.9318 152.785 21.1364 153.474 21.1364ZM175.026 7.54545V11.6364H163.798V7.54545H175.026ZM166.139 25V6.65909C166.139 5.31061 166.393 4.19318 166.901 3.30682C167.408 2.41288 168.113 1.74621 169.014 1.30682C169.916 0.859847 170.957 0.636362 172.139 0.636362C172.912 0.636362 173.639 0.696969 174.321 0.818182C175.01 0.931818 175.522 1.03409 175.855 1.125L174.969 5.19318C174.764 5.125 174.514 5.06818 174.219 5.02273C173.931 4.97727 173.658 4.95454 173.401 4.95454C172.749 4.95454 172.302 5.09848 172.06 5.38636C171.817 5.67424 171.696 6.06818 171.696 6.56818V25H166.139ZM177.699 25V7.54545H183.256V25H177.699ZM180.483 5.51136C179.703 5.51136 179.032 5.25379 178.472 4.73864C177.911 4.21591 177.631 3.58712 177.631 2.85227C177.631 2.125 177.911 1.50379 178.472 0.988636C179.032 0.465908 179.703 0.204544 180.483 0.204544C181.271 0.204544 181.941 0.465908 182.494 0.988636C183.055 1.50379 183.335 2.125 183.335 2.85227C183.335 3.58712 183.055 4.21591 182.494 4.73864C181.941 5.25379 181.271 5.51136 180.483 5.51136ZM196.645 7.54545V11.6364H185.634V7.54545H196.645ZM187.94 3.36364H193.497V19.5114C193.497 19.8523 193.55 20.1288 193.656 20.3409C193.77 20.5455 193.933 20.6932 194.145 20.7841C194.357 20.8674 194.611 20.9091 194.906 20.9091C195.118 20.9091 195.342 20.8902 195.577 20.8523C195.819 20.8068 196.001 20.7689 196.122 20.7386L196.963 24.75C196.698 24.8258 196.323 24.9205 195.838 25.0341C195.361 25.1477 194.789 25.2197 194.122 25.25C192.819 25.3106 191.702 25.1591 190.77 24.7955C189.846 24.4242 189.137 23.8485 188.645 23.0682C188.16 22.2879 187.925 21.3068 187.94 20.125V3.36364ZM23.7273 61.3636C23.7273 63.9242 23.2348 66.0947 22.25 67.875C21.2652 69.6553 19.9318 71.0076 18.25 71.9318C16.5758 72.8561 14.697 73.3182 12.6136 73.3182C10.5227 73.3182 8.64015 72.8523 6.96591 71.9205C5.29167 70.9886 3.96212 69.6364 2.97727 67.8636C2 66.0833 1.51136 63.9167 1.51136 61.3636C1.51136 58.803 2 56.6326 2.97727 54.8523C3.96212 53.072 5.29167 51.7197 6.96591 50.7955C8.64015 49.8712 10.5227 49.4091 12.6136 49.4091C14.697 49.4091 16.5758 49.8712 18.25 50.7955C19.9318 51.7197 21.2652 53.072 22.25 54.8523C23.2348 56.6326 23.7273 58.803 23.7273 61.3636ZM17.9773 61.3636C17.9773 59.8485 17.7614 58.5682 17.3295 57.5227C16.9053 56.4773 16.2917 55.6856 15.4886 55.1477C14.6932 54.6098 13.7348 54.3409 12.6136 54.3409C11.5 54.3409 10.5417 54.6098 9.73864 55.1477C8.93561 55.6856 8.31818 56.4773 7.88636 57.5227C7.46212 58.5682 7.25 59.8485 7.25 61.3636C7.25 62.8788 7.46212 64.1591 7.88636 65.2045C8.31818 66.25 8.93561 67.0417 9.73864 67.5795C10.5417 68.1174 11.5 68.3864 12.6136 68.3864C13.7348 68.3864 14.6932 68.1174 15.4886 67.5795C16.2917 67.0417 16.9053 66.25 17.3295 65.2045C17.7614 64.1591 17.9773 62.8788 17.9773 61.3636ZM27.0114 73V55.5455H32.4091V58.7273H32.5909C32.9091 57.5758 33.428 56.7197 34.1477 56.1591C34.8674 55.5909 35.7045 55.3068 36.6591 55.3068C36.9167 55.3068 37.1818 55.3258 37.4545 55.3636C37.7273 55.3939 37.9811 55.4432 38.2159 55.5114V60.3409C37.9508 60.25 37.6023 60.178 37.1705 60.125C36.7462 60.072 36.3674 60.0455 36.0341 60.0455C35.375 60.0455 34.7803 60.1932 34.25 60.4886C33.7273 60.7765 33.3144 61.1818 33.0114 61.7045C32.7159 62.2197 32.5682 62.8258 32.5682 63.5227V73H27.0114ZM47.7102 79.9091C46.0511 79.9091 44.6307 79.678 43.4489 79.2159C42.267 78.7538 41.339 78.1212 40.6648 77.3182C39.9905 76.5152 39.5852 75.6061 39.4489 74.5909L44.7102 74.2955C44.8087 74.6515 44.9905 74.9621 45.2557 75.2273C45.5284 75.4924 45.8807 75.697 46.3125 75.8409C46.7519 75.9848 47.267 76.0568 47.858 76.0568C48.7898 76.0568 49.5587 75.8295 50.1648 75.375C50.7784 74.928 51.0852 74.1439 51.0852 73.0227V69.9545H50.892C50.6723 70.4924 50.339 70.9735 49.892 71.3977C49.4451 71.822 48.8883 72.1553 48.2216 72.3977C47.5625 72.6402 46.8049 72.7614 45.9489 72.7614C44.6761 72.7614 43.5095 72.4659 42.4489 71.875C41.3958 71.2765 40.5511 70.3523 39.9148 69.1023C39.286 67.8447 38.9716 66.2273 38.9716 64.25C38.9716 62.2121 39.2973 60.5341 39.9489 59.2159C40.6004 57.8902 41.4527 56.9091 42.5057 56.2727C43.5663 55.6364 44.7064 55.3182 45.9261 55.3182C46.8428 55.3182 47.6269 55.4773 48.2784 55.7955C48.9375 56.1061 49.4792 56.5076 49.9034 57C50.3277 57.4924 50.6496 58.0038 50.8693 58.5341H51.0284V55.5455H56.5625V73.0682C56.5625 74.5455 56.1913 75.7917 55.4489 76.8068C54.7064 77.822 53.6686 78.5909 52.3352 79.1136C51.0019 79.6439 49.4602 79.9091 47.7102 79.9091ZM47.8807 68.7159C48.5549 68.7159 49.1307 68.5379 49.608 68.1818C50.0852 67.8258 50.4527 67.3144 50.7102 66.6477C50.9678 65.9811 51.0966 65.1818 51.0966 64.25C51.0966 63.303 50.9678 62.4886 50.7102 61.8068C50.4602 61.1174 50.0928 60.5871 49.608 60.2159C49.1307 59.8447 48.5549 59.6591 47.8807 59.6591C47.1913 59.6591 46.608 59.8485 46.1307 60.2273C45.6534 60.6061 45.2898 61.1402 45.0398 61.8295C44.7973 62.5114 44.6761 63.3182 44.6761 64.25C44.6761 65.1818 44.8011 65.9811 45.0511 66.6477C45.3011 67.3144 45.661 67.8258 46.1307 68.1818C46.608 68.5379 47.1913 68.7159 47.8807 68.7159ZM65.0256 73.2955C63.9119 73.2955 62.9233 73.1098 62.0597 72.7386C61.2036 72.3598 60.5256 71.7917 60.0256 71.0341C59.5331 70.2689 59.2869 69.3106 59.2869 68.1591C59.2869 67.1894 59.4574 66.3712 59.7983 65.7045C60.1392 65.0379 60.6089 64.4962 61.2074 64.0795C61.8059 63.6629 62.4953 63.3485 63.2756 63.1364C64.0559 62.9167 64.8892 62.7689 65.7756 62.6932C66.768 62.6023 67.5672 62.5076 68.1733 62.4091C68.7794 62.303 69.2188 62.1553 69.4915 61.9659C69.7718 61.7689 69.9119 61.4924 69.9119 61.1364V61.0795C69.9119 60.4962 69.7112 60.0455 69.3097 59.7273C68.9081 59.4091 68.3665 59.25 67.6847 59.25C66.9498 59.25 66.3589 59.4091 65.9119 59.7273C65.465 60.0455 65.1809 60.4848 65.0597 61.0455L59.9347 60.8636C60.0862 59.803 60.4763 58.8561 61.1051 58.0227C61.7415 57.1818 62.6127 56.5227 63.7188 56.0455C64.8324 55.5606 66.1695 55.3182 67.7301 55.3182C68.8438 55.3182 69.8703 55.4508 70.8097 55.7159C71.7491 55.9735 72.5672 56.3523 73.2642 56.8523C73.9612 57.3447 74.4991 57.9508 74.8778 58.6705C75.2642 59.3902 75.4574 60.2121 75.4574 61.1364V73H70.2301V70.5682H70.0938C69.7831 71.1591 69.3854 71.6591 68.9006 72.0682C68.4233 72.4773 67.8589 72.7841 67.2074 72.9886C66.5634 73.1932 65.8362 73.2955 65.0256 73.2955ZM66.7415 69.6591C67.34 69.6591 67.8778 69.5379 68.3551 69.2955C68.84 69.053 69.2263 68.7197 69.5142 68.2955C69.8021 67.8636 69.946 67.3636 69.946 66.7955V65.1364C69.7869 65.2197 69.5938 65.2955 69.3665 65.3636C69.1468 65.4318 68.9044 65.4962 68.6392 65.5568C68.3741 65.6174 68.1013 65.6705 67.821 65.7159C67.5407 65.7614 67.2718 65.803 67.0142 65.8409C66.4915 65.9242 66.0445 66.053 65.6733 66.2273C65.3097 66.4015 65.0294 66.6288 64.8324 66.9091C64.643 67.1818 64.5483 67.5076 64.5483 67.8864C64.5483 68.4621 64.7528 68.9015 65.1619 69.2045C65.5786 69.5076 66.1051 69.6591 66.7415 69.6591ZM84.4119 63.0455V73H78.8551V55.5455H84.1392V58.75H84.3324C84.7188 57.6818 85.3778 56.8447 86.3097 56.2386C87.2415 55.625 88.3513 55.3182 89.6392 55.3182C90.8665 55.3182 91.9309 55.5947 92.8324 56.1477C93.7415 56.6932 94.446 57.4583 94.946 58.4432C95.4536 59.4205 95.7036 60.5644 95.696 61.875V73H90.1392V62.9659C90.1468 61.9962 89.9006 61.2386 89.4006 60.6932C88.9081 60.1477 88.2225 59.875 87.3438 59.875C86.7604 59.875 86.2453 60.0038 85.7983 60.2614C85.3589 60.5114 85.018 60.8712 84.7756 61.3409C84.5407 61.8106 84.4195 62.3788 84.4119 63.0455ZM99.1364 73V55.5455H104.693V73H99.1364ZM101.92 53.5114C101.14 53.5114 100.47 53.2538 99.9091 52.7386C99.3485 52.2159 99.0682 51.5871 99.0682 50.8523C99.0682 50.125 99.3485 49.5038 99.9091 48.9886C100.47 48.4659 101.14 48.2045 101.92 48.2045C102.708 48.2045 103.379 48.4659 103.932 48.9886C104.492 49.5038 104.773 50.125 104.773 50.8523C104.773 51.5871 104.492 52.2159 103.932 52.7386C103.379 53.2538 102.708 53.5114 101.92 53.5114ZM108.276 73V69.8295L116.366 59.9773V59.8636H108.56V55.5455H122.991V59.0227L115.491 68.5682V68.6818H123.264V73H108.276ZM131.776 73.2955C130.662 73.2955 129.673 73.1098 128.81 72.7386C127.954 72.3598 127.276 71.7917 126.776 71.0341C126.283 70.2689 126.037 69.3106 126.037 68.1591C126.037 67.1894 126.207 66.3712 126.548 65.7045C126.889 65.0379 127.359 64.4962 127.957 64.0795C128.556 63.6629 129.245 63.3485 130.026 63.1364C130.806 62.9167 131.639 62.7689 132.526 62.6932C133.518 62.6023 134.317 62.5076 134.923 62.4091C135.529 62.303 135.969 62.1553 136.241 61.9659C136.522 61.7689 136.662 61.4924 136.662 61.1364V61.0795C136.662 60.4962 136.461 60.0455 136.06 59.7273C135.658 59.4091 135.116 59.25 134.435 59.25C133.7 59.25 133.109 59.4091 132.662 59.7273C132.215 60.0455 131.931 60.4848 131.81 61.0455L126.685 60.8636C126.836 59.803 127.226 58.8561 127.855 58.0227C128.491 57.1818 129.363 56.5227 130.469 56.0455C131.582 55.5606 132.92 55.3182 134.48 55.3182C135.594 55.3182 136.62 55.4508 137.56 55.7159C138.499 55.9735 139.317 56.3523 140.014 56.8523C140.711 57.3447 141.249 57.9508 141.628 58.6705C142.014 59.3902 142.207 60.2121 142.207 61.1364V73H136.98V70.5682H136.844C136.533 71.1591 136.135 71.6591 135.651 72.0682C135.173 72.4773 134.609 72.7841 133.957 72.9886C133.313 73.1932 132.586 73.2955 131.776 73.2955ZM133.491 69.6591C134.09 69.6591 134.628 69.5379 135.105 69.2955C135.59 69.053 135.976 68.7197 136.264 68.2955C136.552 67.8636 136.696 67.3636 136.696 66.7955V65.1364C136.537 65.2197 136.344 65.2955 136.116 65.3636C135.897 65.4318 135.654 65.4962 135.389 65.5568C135.124 65.6174 134.851 65.6705 134.571 65.7159C134.291 65.7614 134.022 65.803 133.764 65.8409C133.241 65.9242 132.795 66.053 132.423 66.2273C132.06 66.4015 131.779 66.6288 131.582 66.9091C131.393 67.1818 131.298 67.5076 131.298 67.8864C131.298 68.4621 131.503 68.9015 131.912 69.2045C132.329 69.5076 132.855 69.6591 133.491 69.6591ZM155.457 55.5455V59.6364H144.446V55.5455H155.457ZM146.753 51.3636H152.31V67.5114C152.31 67.8523 152.363 68.1288 152.469 68.3409C152.582 68.5455 152.745 68.6932 152.957 68.7841C153.17 68.8674 153.423 68.9091 153.719 68.9091C153.931 68.9091 154.154 68.8902 154.389 68.8523C154.632 68.8068 154.813 68.7689 154.935 68.7386L155.776 72.75C155.51 72.8258 155.135 72.9205 154.651 73.0341C154.173 73.1477 153.601 73.2197 152.935 73.25C151.632 73.3106 150.514 73.1591 149.582 72.7955C148.658 72.4242 147.95 71.8485 147.457 71.0682C146.973 70.2879 146.738 69.3068 146.753 68.125V51.3636ZM158.293 73V55.5455H163.849V73H158.293ZM161.077 53.5114C160.296 53.5114 159.626 53.2538 159.065 52.7386C158.505 52.2159 158.224 51.5871 158.224 50.8523C158.224 50.125 158.505 49.5038 159.065 48.9886C159.626 48.4659 160.296 48.2045 161.077 48.2045C161.865 48.2045 162.535 48.4659 163.088 48.9886C163.649 49.5038 163.929 50.125 163.929 50.8523C163.929 51.5871 163.649 52.2159 163.088 52.7386C162.535 53.2538 161.865 53.5114 161.077 53.5114ZM175.534 73.3295C173.701 73.3295 172.125 72.9545 170.807 72.2045C169.496 71.447 168.485 70.3939 167.773 69.0455C167.068 67.6894 166.716 66.1174 166.716 64.3295C166.716 62.5341 167.068 60.9621 167.773 59.6136C168.485 58.2576 169.496 57.2045 170.807 56.4545C172.125 55.697 173.701 55.3182 175.534 55.3182C177.367 55.3182 178.939 55.697 180.25 56.4545C181.568 57.2045 182.58 58.2576 183.284 59.6136C183.996 60.9621 184.352 62.5341 184.352 64.3295C184.352 66.1174 183.996 67.6894 183.284 69.0455C182.58 70.3939 181.568 71.447 180.25 72.2045C178.939 72.9545 177.367 73.3295 175.534 73.3295ZM175.568 69.1364C176.235 69.1364 176.799 68.9318 177.261 68.5227C177.723 68.1136 178.076 67.5455 178.318 66.8182C178.568 66.0909 178.693 65.25 178.693 64.2955C178.693 63.3258 178.568 62.4773 178.318 61.75C178.076 61.0227 177.723 60.4545 177.261 60.0455C176.799 59.6364 176.235 59.4318 175.568 59.4318C174.879 59.4318 174.295 59.6364 173.818 60.0455C173.348 60.4545 172.989 61.0227 172.739 61.75C172.496 62.4773 172.375 63.3258 172.375 64.2955C172.375 65.25 172.496 66.0909 172.739 66.8182C172.989 67.5455 173.348 68.1136 173.818 68.5227C174.295 68.9318 174.879 69.1364 175.568 69.1364ZM192.756 63.0455V73H187.199V55.5455H192.483V58.75H192.676C193.063 57.6818 193.722 56.8447 194.653 56.2386C195.585 55.625 196.695 55.3182 197.983 55.3182C199.21 55.3182 200.275 55.5947 201.176 56.1477C202.085 56.6932 202.79 57.4583 203.29 58.4432C203.797 59.4205 204.047 60.5644 204.04 61.875V73H198.483V62.9659C198.491 61.9962 198.244 61.2386 197.744 60.6932C197.252 60.1477 196.566 59.875 195.688 59.875C195.104 59.875 194.589 60.0038 194.142 60.2614C193.703 60.5114 193.362 60.8712 193.119 61.3409C192.884 61.8106 192.763 62.3788 192.756 63.0455Z" fill="#1A261D"/>
</svg>
