<svg width="206" height="96" viewBox="0 0 206 96" fill="none" xmlns="http://www.w3.org/2000/svg">
<g clip-path="url(#clip0_41_4)">
<path d="M6.79545 36H0.75L8.60227 12.7273H16.0909L23.9432 36H17.8977L12.4318 18.5909H12.25L6.79545 36ZM5.98864 26.8409H18.625V31.1136H5.98864V26.8409ZM53.1307 12.7273V36H48.358L39.0966 22.5682H38.9489V36H33.3239V12.7273H38.1648L47.3239 26.1364H47.517V12.7273H53.1307ZM64.8153 36.3295C62.982 36.3295 61.4063 35.9545 60.0881 35.2045C58.7775 34.447 57.7661 33.3939 57.054 32.0455C56.3494 30.6894 55.9972 29.1174 55.9972 27.3295C55.9972 25.5341 56.3494 23.9621 57.054 22.6136C57.7661 21.2576 58.7775 20.2045 60.0881 19.4545C61.4063 18.697 62.982 18.3182 64.8153 18.3182C66.6487 18.3182 68.2206 18.697 69.5312 19.4545C70.8494 20.2045 71.8608 21.2576 72.5653 22.6136C73.2775 23.9621 73.6335 25.5341 73.6335 27.3295C73.6335 29.1174 73.2775 30.6894 72.5653 32.0455C71.8608 33.3939 70.8494 34.447 69.5312 35.2045C68.2206 35.9545 66.6487 36.3295 64.8153 36.3295ZM64.8494 32.1364C65.5161 32.1364 66.0805 31.9318 66.5426 31.5227C67.0047 31.1136 67.357 30.5455 67.5994 29.8182C67.8494 29.0909 67.9744 28.25 67.9744 27.2955C67.9744 26.3258 67.8494 25.4773 67.5994 24.75C67.357 24.0227 67.0047 23.4545 66.5426 23.0455C66.0805 22.6364 65.5161 22.4318 64.8494 22.4318C64.16 22.4318 63.5767 22.6364 63.0994 23.0455C62.6297 23.4545 62.2699 24.0227 62.0199 24.75C61.7775 25.4773 61.6562 26.3258 61.6562 27.2955C61.6562 28.25 61.7775 29.0909 62.0199 29.8182C62.2699 30.5455 62.6297 31.1136 63.0994 31.5227C63.5767 31.9318 64.16 32.1364 64.8494 32.1364ZM82.0369 26.0455V36H76.4801V18.5455H81.7642V21.75H81.9574C82.3438 20.6818 83.0028 19.8447 83.9347 19.2386C84.8665 18.625 85.9763 18.3182 87.2642 18.3182C88.4915 18.3182 89.5559 18.5947 90.4574 19.1477C91.3665 19.6932 92.071 20.4583 92.571 21.4432C93.0786 22.4205 93.3286 23.5644 93.321 24.875V36H87.7642V25.9659C87.7718 24.9962 87.5256 24.2386 87.0256 23.6932C86.5331 23.1477 85.8475 22.875 84.9688 22.875C84.3854 22.875 83.8703 23.0038 83.4233 23.2614C82.9839 23.5114 82.643 23.8712 82.4006 24.3409C82.1657 24.8106 82.0445 25.3788 82.0369 26.0455ZM107.932 24.4432V28.7273H97.1591V24.4432H107.932ZM111.855 36V12.7273H121.469C123.211 12.7273 124.715 13.0682 125.98 13.75C127.253 14.4242 128.234 15.3674 128.923 16.5795C129.613 17.7841 129.957 19.1856 129.957 20.7841C129.957 22.3902 129.605 23.7955 128.901 25C128.204 26.197 127.207 27.125 125.912 27.7841C124.616 28.4432 123.079 28.7727 121.298 28.7727H115.366V24.3409H120.253C121.101 24.3409 121.81 24.1932 122.378 23.8977C122.954 23.6023 123.389 23.1894 123.685 22.6591C123.98 22.1212 124.128 21.4962 124.128 20.7841C124.128 20.0644 123.98 19.4432 123.685 18.9205C123.389 18.3902 122.954 17.9811 122.378 17.6932C121.802 17.4053 121.094 17.2614 120.253 17.2614H117.48V36H111.855ZM132.73 36V18.5455H138.128V21.7273H138.31C138.628 20.5758 139.147 19.7197 139.866 19.1591C140.586 18.5909 141.423 18.3068 142.378 18.3068C142.635 18.3068 142.901 18.3258 143.173 18.3636C143.446 18.3939 143.7 18.4432 143.935 18.5114V23.3409C143.67 23.25 143.321 23.178 142.889 23.125C142.465 23.072 142.086 23.0455 141.753 23.0455C141.094 23.0455 140.499 23.1932 139.969 23.4886C139.446 23.7765 139.033 24.1818 138.73 24.7045C138.435 25.2197 138.287 25.8258 138.287 26.5227V36H132.73ZM153.44 36.3295C151.607 36.3295 150.031 35.9545 148.713 35.2045C147.402 34.447 146.391 33.3939 145.679 32.0455C144.974 30.6894 144.622 29.1174 144.622 27.3295C144.622 25.5341 144.974 23.9621 145.679 22.6136C146.391 21.2576 147.402 20.2045 148.713 19.4545C150.031 18.697 151.607 18.3182 153.44 18.3182C155.274 18.3182 156.846 18.697 158.156 19.4545C159.474 20.2045 160.486 21.2576 161.19 22.6136C161.902 23.9621 162.259 25.5341 162.259 27.3295C162.259 29.1174 161.902 30.6894 161.19 32.0455C160.486 33.3939 159.474 34.447 158.156 35.2045C156.846 35.9545 155.274 36.3295 153.44 36.3295ZM153.474 32.1364C154.141 32.1364 154.705 31.9318 155.168 31.5227C155.63 31.1136 155.982 30.5455 156.224 29.8182C156.474 29.0909 156.599 28.25 156.599 27.2955C156.599 26.3258 156.474 25.4773 156.224 24.75C155.982 24.0227 155.63 23.4545 155.168 23.0455C154.705 22.6364 154.141 22.4318 153.474 22.4318C152.785 22.4318 152.202 22.6364 151.724 23.0455C151.255 23.4545 150.895 24.0227 150.645 24.75C150.402 25.4773 150.281 26.3258 150.281 27.2955C150.281 28.25 150.402 29.0909 150.645 29.8182C150.895 30.5455 151.255 31.1136 151.724 31.5227C152.202 31.9318 152.785 32.1364 153.474 32.1364ZM175.026 18.5455V22.6364H163.798V18.5455H175.026ZM166.139 36V17.6591C166.139 16.3106 166.393 15.1932 166.901 14.3068C167.408 13.4129 168.113 12.7462 169.014 12.3068C169.916 11.8598 170.957 11.6364 172.139 11.6364C172.912 11.6364 173.639 11.697 174.321 11.8182C175.01 11.9318 175.522 12.0341 175.855 12.125L174.969 16.1932C174.764 16.125 174.514 16.0682 174.219 16.0227C173.931 15.9773 173.658 15.9545 173.401 15.9545C172.749 15.9545 172.302 16.0985 172.06 16.3864C171.817 16.6742 171.696 17.0682 171.696 17.5682V36H166.139ZM177.699 36V18.5455H183.256V36H177.699ZM180.483 16.5114C179.703 16.5114 179.032 16.2538 178.472 15.7386C177.911 15.2159 177.631 14.5871 177.631 13.8523C177.631 13.125 177.911 12.5038 178.472 11.9886C179.032 11.4659 179.703 11.2045 180.483 11.2045C181.271 11.2045 181.941 11.4659 182.494 11.9886C183.055 12.5038 183.335 13.125 183.335 13.8523C183.335 14.5871 183.055 15.2159 182.494 15.7386C181.941 16.2538 181.271 16.5114 180.483 16.5114ZM196.645 18.5455V22.6364H185.634V18.5455H196.645ZM187.94 14.3636H193.497V30.5114C193.497 30.8523 193.55 31.1288 193.656 31.3409C193.77 31.5455 193.933 31.6932 194.145 31.7841C194.357 31.8674 194.611 31.9091 194.906 31.9091C195.118 31.9091 195.342 31.8902 195.577 31.8523C195.819 31.8068 196.001 31.7689 196.122 31.7386L196.963 35.75C196.698 35.8258 196.323 35.9205 195.838 36.0341C195.361 36.1477 194.789 36.2197 194.122 36.25C192.819 36.3106 191.702 36.1591 190.77 35.7955C189.846 35.4242 189.137 34.8485 188.645 34.0682C188.16 33.2879 187.925 32.3068 187.94 31.125V14.3636ZM23.7273 72.3636C23.7273 74.9242 23.2348 77.0947 22.25 78.875C21.2652 80.6553 19.9318 82.0076 18.25 82.9318C16.5758 83.8561 14.697 84.3182 12.6136 84.3182C10.5227 84.3182 8.64015 83.8523 6.96591 82.9205C5.29167 81.9886 3.96212 80.6364 2.97727 78.8636C2 77.0833 1.51136 74.9167 1.51136 72.3636C1.51136 69.803 2 67.6326 2.97727 65.8523C3.96212 64.072 5.29167 62.7197 6.96591 61.7955C8.64015 60.8712 10.5227 60.4091 12.6136 60.4091C14.697 60.4091 16.5758 60.8712 18.25 61.7955C19.9318 62.7197 21.2652 64.072 22.25 65.8523C23.2348 67.6326 23.7273 69.803 23.7273 72.3636ZM17.9773 72.3636C17.9773 70.8485 17.7614 69.5682 17.3295 68.5227C16.9053 67.4773 16.2917 66.6856 15.4886 66.1477C14.6932 65.6098 13.7348 65.3409 12.6136 65.3409C11.5 65.3409 10.5417 65.6098 9.73864 66.1477C8.93561 66.6856 8.31818 67.4773 7.88636 68.5227C7.46212 69.5682 7.25 70.8485 7.25 72.3636C7.25 73.8788 7.46212 75.1591 7.88636 76.2045C8.31818 77.25 8.93561 78.0417 9.73864 78.5795C10.5417 79.1174 11.5 79.3864 12.6136 79.3864C13.7348 79.3864 14.6932 79.1174 15.4886 78.5795C16.2917 78.0417 16.9053 77.25 17.3295 76.2045C17.7614 75.1591 17.9773 73.8788 17.9773 72.3636ZM27.0114 84V66.5455H32.4091V69.7273H32.5909C32.9091 68.5758 33.428 67.7197 34.1477 67.1591C34.8674 66.5909 35.7045 66.3068 36.6591 66.3068C36.9167 66.3068 37.1818 66.3258 37.4545 66.3636C37.7273 66.3939 37.9811 66.4432 38.2159 66.5114V71.3409C37.9508 71.25 37.6023 71.178 37.1705 71.125C36.7462 71.072 36.3674 71.0455 36.0341 71.0455C35.375 71.0455 34.7803 71.1932 34.25 71.4886C33.7273 71.7765 33.3144 72.1818 33.0114 72.7045C32.7159 73.2197 32.5682 73.8258 32.5682 74.5227V84H27.0114ZM47.7102 90.9091C46.0511 90.9091 44.6307 90.678 43.4489 90.2159C42.267 89.7538 41.339 89.1212 40.6648 88.3182C39.9905 87.5152 39.5852 86.6061 39.4489 85.5909L44.7102 85.2955C44.8087 85.6515 44.9905 85.9621 45.2557 86.2273C45.5284 86.4924 45.8807 86.697 46.3125 86.8409C46.7519 86.9848 47.267 87.0568 47.858 87.0568C48.7898 87.0568 49.5587 86.8295 50.1648 86.375C50.7784 85.928 51.0852 85.1439 51.0852 84.0227V80.9545H50.892C50.6723 81.4924 50.339 81.9735 49.892 82.3977C49.4451 82.822 48.8883 83.1553 48.2216 83.3977C47.5625 83.6402 46.8049 83.7614 45.9489 83.7614C44.6761 83.7614 43.5095 83.4659 42.4489 82.875C41.3958 82.2765 40.5511 81.3523 39.9148 80.1023C39.286 78.8447 38.9716 77.2273 38.9716 75.25C38.9716 73.2121 39.2973 71.5341 39.9489 70.2159C40.6004 68.8902 41.4527 67.9091 42.5057 67.2727C43.5663 66.6364 44.7064 66.3182 45.9261 66.3182C46.8428 66.3182 47.6269 66.4773 48.2784 66.7955C48.9375 67.1061 49.4792 67.5076 49.9034 68C50.3277 68.4924 50.6496 69.0038 50.8693 69.5341H51.0284V66.5455H56.5625V84.0682C56.5625 85.5455 56.1913 86.7917 55.4489 87.8068C54.7064 88.822 53.6686 89.5909 52.3352 90.1136C51.0019 90.6439 49.4602 90.9091 47.7102 90.9091ZM47.8807 79.7159C48.5549 79.7159 49.1307 79.5379 49.608 79.1818C50.0852 78.8258 50.4527 78.3144 50.7102 77.6477C50.9678 76.9811 51.0966 76.1818 51.0966 75.25C51.0966 74.303 50.9678 73.4886 50.7102 72.8068C50.4602 72.1174 50.0928 71.5871 49.608 71.2159C49.1307 70.8447 48.5549 70.6591 47.8807 70.6591C47.1913 70.6591 46.608 70.8485 46.1307 71.2273C45.6534 71.6061 45.2898 72.1402 45.0398 72.8295C44.7973 73.5114 44.6761 74.3182 44.6761 75.25C44.6761 76.1818 44.8011 76.9811 45.0511 77.6477C45.3011 78.3144 45.661 78.8258 46.1307 79.1818C46.608 79.5379 47.1913 79.7159 47.8807 79.7159ZM65.0256 84.2955C63.9119 84.2955 62.9233 84.1098 62.0597 83.7386C61.2036 83.3598 60.5256 82.7917 60.0256 82.0341C59.5331 81.2689 59.2869 80.3106 59.2869 79.1591C59.2869 78.1894 59.4574 77.3712 59.7983 76.7045C60.1392 76.0379 60.6089 75.4962 61.2074 75.0795C61.8059 74.6629 62.4953 74.3485 63.2756 74.1364C64.0559 73.9167 64.8892 73.7689 65.7756 73.6932C66.768 73.6023 67.5672 73.5076 68.1733 73.4091C68.7794 73.303 69.2188 73.1553 69.4915 72.9659C69.7718 72.7689 69.9119 72.4924 69.9119 72.1364V72.0795C69.9119 71.4962 69.7112 71.0455 69.3097 70.7273C68.9081 70.4091 68.3665 70.25 67.6847 70.25C66.9498 70.25 66.3589 70.4091 65.9119 70.7273C65.465 71.0455 65.1809 71.4848 65.0597 72.0455L59.9347 71.8636C60.0862 70.803 60.4763 69.8561 61.1051 69.0227C61.7415 68.1818 62.6127 67.5227 63.7188 67.0455C64.8324 66.5606 66.1695 66.3182 67.7301 66.3182C68.8438 66.3182 69.8703 66.4508 70.8097 66.7159C71.7491 66.9735 72.5672 67.3523 73.2642 67.8523C73.9612 68.3447 74.4991 68.9508 74.8778 69.6705C75.2642 70.3902 75.4574 71.2121 75.4574 72.1364V84H70.2301V81.5682H70.0938C69.7831 82.1591 69.3854 82.6591 68.9006 83.0682C68.4233 83.4773 67.8589 83.7841 67.2074 83.9886C66.5634 84.1932 65.8362 84.2955 65.0256 84.2955ZM66.7415 80.6591C67.34 80.6591 67.8778 80.5379 68.3551 80.2955C68.84 80.053 69.2263 79.7197 69.5142 79.2955C69.8021 78.8636 69.946 78.3636 69.946 77.7955V76.1364C69.7869 76.2197 69.5938 76.2955 69.3665 76.3636C69.1468 76.4318 68.9044 76.4962 68.6392 76.5568C68.3741 76.6174 68.1013 76.6705 67.821 76.7159C67.5407 76.7614 67.2718 76.803 67.0142 76.8409C66.4915 76.9242 66.0445 77.053 65.6733 77.2273C65.3097 77.4015 65.0294 77.6288 64.8324 77.9091C64.643 78.1818 64.5483 78.5076 64.5483 78.8864C64.5483 79.4621 64.7528 79.9015 65.1619 80.2045C65.5786 80.5076 66.1051 80.6591 66.7415 80.6591ZM84.4119 74.0455V84H78.8551V66.5455H84.1392V69.75H84.3324C84.7188 68.6818 85.3778 67.8447 86.3097 67.2386C87.2415 66.625 88.3513 66.3182 89.6392 66.3182C90.8665 66.3182 91.9309 66.5947 92.8324 67.1477C93.7415 67.6932 94.446 68.4583 94.946 69.4432C95.4536 70.4205 95.7036 71.5644 95.696 72.875V84H90.1392V73.9659C90.1468 72.9962 89.9006 72.2386 89.4006 71.6932C88.9081 71.1477 88.2225 70.875 87.3438 70.875C86.7604 70.875 86.2453 71.0038 85.7983 71.2614C85.3589 71.5114 85.018 71.8712 84.7756 72.3409C84.5407 72.8106 84.4195 73.3788 84.4119 74.0455ZM99.1364 84V66.5455H104.693V84H99.1364ZM101.92 64.5114C101.14 64.5114 100.47 64.2538 99.9091 63.7386C99.3485 63.2159 99.0682 62.5871 99.0682 61.8523C99.0682 61.125 99.3485 60.5038 99.9091 59.9886C100.47 59.4659 101.14 59.2045 101.92 59.2045C102.708 59.2045 103.379 59.4659 103.932 59.9886C104.492 60.5038 104.773 61.125 104.773 61.8523C104.773 62.5871 104.492 63.2159 103.932 63.7386C103.379 64.2538 102.708 64.5114 101.92 64.5114ZM108.276 84V80.8295L116.366 70.9773V70.8636H108.56V66.5455H122.991V70.0227L115.491 79.5682V79.6818H123.264V84H108.276ZM131.776 84.2955C130.662 84.2955 129.673 84.1098 128.81 83.7386C127.954 83.3598 127.276 82.7917 126.776 82.0341C126.283 81.2689 126.037 80.3106 126.037 79.1591C126.037 78.1894 126.207 77.3712 126.548 76.7045C126.889 76.0379 127.359 75.4962 127.957 75.0795C128.556 74.6629 129.245 74.3485 130.026 74.1364C130.806 73.9167 131.639 73.7689 132.526 73.6932C133.518 73.6023 134.317 73.5076 134.923 73.4091C135.529 73.303 135.969 73.1553 136.241 72.9659C136.522 72.7689 136.662 72.4924 136.662 72.1364V72.0795C136.662 71.4962 136.461 71.0455 136.06 70.7273C135.658 70.4091 135.116 70.25 134.435 70.25C133.7 70.25 133.109 70.4091 132.662 70.7273C132.215 71.0455 131.931 71.4848 131.81 72.0455L126.685 71.8636C126.836 70.803 127.226 69.8561 127.855 69.0227C128.491 68.1818 129.363 67.5227 130.469 67.0455C131.582 66.5606 132.92 66.3182 134.48 66.3182C135.594 66.3182 136.62 66.4508 137.56 66.7159C138.499 66.9735 139.317 67.3523 140.014 67.8523C140.711 68.3447 141.249 68.9508 141.628 69.6705C142.014 70.3902 142.207 71.2121 142.207 72.1364V84H136.98V81.5682H136.844C136.533 82.1591 136.135 82.6591 135.651 83.0682C135.173 83.4773 134.609 83.7841 133.957 83.9886C133.313 84.1932 132.586 84.2955 131.776 84.2955ZM133.491 80.6591C134.09 80.6591 134.628 80.5379 135.105 80.2955C135.59 80.053 135.976 79.7197 136.264 79.2955C136.552 78.8636 136.696 78.3636 136.696 77.7955V76.1364C136.537 76.2197 136.344 76.2955 136.116 76.3636C135.897 76.4318 135.654 76.4962 135.389 76.5568C135.124 76.6174 134.851 76.6705 134.571 76.7159C134.291 76.7614 134.022 76.803 133.764 76.8409C133.241 76.9242 132.795 77.053 132.423 77.2273C132.06 77.4015 131.779 77.6288 131.582 77.9091C131.393 78.1818 131.298 78.5076 131.298 78.8864C131.298 79.4621 131.503 79.9015 131.912 80.2045C132.329 80.5076 132.855 80.6591 133.491 80.6591ZM155.457 66.5455V70.6364H144.446V66.5455H155.457ZM146.753 62.3636H152.31V78.5114C152.31 78.8523 152.363 79.1288 152.469 79.3409C152.582 79.5455 152.745 79.6932 152.957 79.7841C153.17 79.8674 153.423 79.9091 153.719 79.9091C153.931 79.9091 154.154 79.8902 154.389 79.8523C154.632 79.8068 154.813 79.7689 154.935 79.7386L155.776 83.75C155.51 83.8258 155.135 83.9205 154.651 84.0341C154.173 84.1477 153.601 84.2197 152.935 84.25C151.632 84.3106 150.514 84.1591 149.582 83.7955C148.658 83.4242 147.95 82.8485 147.457 82.0682C146.973 81.2879 146.738 80.3068 146.753 79.125V62.3636ZM158.293 84V66.5455H163.849V84H158.293ZM161.077 64.5114C160.296 64.5114 159.626 64.2538 159.065 63.7386C158.505 63.2159 158.224 62.5871 158.224 61.8523C158.224 61.125 158.505 60.5038 159.065 59.9886C159.626 59.4659 160.296 59.2045 161.077 59.2045C161.865 59.2045 162.535 59.4659 163.088 59.9886C163.649 60.5038 163.929 61.125 163.929 61.8523C163.929 62.5871 163.649 63.2159 163.088 63.7386C162.535 64.2538 161.865 64.5114 161.077 64.5114ZM175.534 84.3295C173.701 84.3295 172.125 83.9545 170.807 83.2045C169.496 82.447 168.485 81.3939 167.773 80.0455C167.068 78.6894 166.716 77.1174 166.716 75.3295C166.716 73.5341 167.068 71.9621 167.773 70.6136C168.485 69.2576 169.496 68.2045 170.807 67.4545C172.125 66.697 173.701 66.3182 175.534 66.3182C177.367 66.3182 178.939 66.697 180.25 67.4545C181.568 68.2045 182.58 69.2576 183.284 70.6136C183.996 71.9621 184.352 73.5341 184.352 75.3295C184.352 77.1174 183.996 78.6894 183.284 80.0455C182.58 81.3939 181.568 82.447 180.25 83.2045C178.939 83.9545 177.367 84.3295 175.534 84.3295ZM175.568 80.1364C176.235 80.1364 176.799 79.9318 177.261 79.5227C177.723 79.1136 178.076 78.5455 178.318 77.8182C178.568 77.0909 178.693 76.25 178.693 75.2955C178.693 74.3258 178.568 73.4773 178.318 72.75C178.076 72.0227 177.723 71.4545 177.261 71.0455C176.799 70.6364 176.235 70.4318 175.568 70.4318C174.879 70.4318 174.295 70.6364 173.818 71.0455C173.348 71.4545 172.989 72.0227 172.739 72.75C172.496 73.4773 172.375 74.3258 172.375 75.2955C172.375 76.25 172.496 77.0909 172.739 77.8182C172.989 78.5455 173.348 79.1136 173.818 79.5227C174.295 79.9318 174.879 80.1364 175.568 80.1364ZM192.756 74.0455V84H187.199V66.5455H192.483V69.75H192.676C193.063 68.6818 193.722 67.8447 194.653 67.2386C195.585 66.625 196.695 66.3182 197.983 66.3182C199.21 66.3182 200.275 66.5947 201.176 67.1477C202.085 67.6932 202.79 68.4583 203.29 69.4432C203.797 70.4205 204.047 71.5644 204.04 72.875V84H198.483V73.9659C198.491 72.9962 198.244 72.2386 197.744 71.6932C197.252 71.1477 196.566 70.875 195.688 70.875C195.104 70.875 194.589 71.0038 194.142 71.2614C193.703 71.5114 193.362 71.8712 193.119 72.3409C192.884 72.8106 192.763 73.3788 192.756 74.0455Z" fill="white"/>
</g>
<defs>
<clipPath id="clip0_41_4">
<rect width="206" height="96" fill="white"/>
</clipPath>
</defs>
</svg>
